<svg width="13" height="14" viewBox="0 0 13 14" version="1.1" xmlns="http://www.w3.org/2000/svg" xmlns:xlink="http://www.w3.org/1999/xlink">
<title>Group</title>
<desc>Created using Figma</desc>
<g id="Canvas" transform="translate(-1253 5)">
<g id="Group">
<g id="Vector">
<use xlink:href="#path0_fill" transform="translate(1253.47 -4.84615)" fill="#00FFEC"/>
</g>
</g>
</g>
<defs>
<path id="path0_fill" d="M 12.0606 0.692308L 0.524376 0.692308L 0.524376 0.230769C 0.524376 0.103154 0.406916 0 0.262188 0C 0.11746 0 0 0.103154 0 0.230769L 0 0.923077L 0 7.61538L 0 8.30769L 0 13.6154C 0 13.743 0.11746 13.8462 0.262188 13.8462C 0.406916 13.8462 0.524376 13.743 0.524376 13.6154L 0.524376 8.53846L 12.0606 8.53846C 12.2056 8.53846 12.3228 8.43531 12.3228 8.30769L 12.3228 0.923077C 12.3228 0.795462 12.2056 0.692308 12.0606 0.692308ZM 11.7985 8.07692L 0.524376 8.07692L 0.524376 7.61538L 0.524376 1.15385L 11.7985 1.15385L 11.7985 8.07692Z"/>
</defs>
</svg>
