<svg width="13" height="13" viewBox="0 0 13 13" version="1.1" xmlns="http://www.w3.org/2000/svg" xmlns:xlink="http://www.w3.org/1999/xlink">
<title>clapperboard</title>
<desc>Created using Figma</desc>
<g id="Canvas" transform="translate(-1253 -22)">
<g id="clapperboard">
<g id="Group">
<g id="Group">
<g id="Group">
<g id="Vector">
<use xlink:href="#path0_fill" transform="translate(1255.77 30.3697)" fill="#00FFEC"/>
</g>
</g>
</g>
<g id="Group">
<g id="Group">
<g id="Vector">
<use xlink:href="#path1_fill" transform="translate(1255.77 32.0739)" fill="#00FFEC"/>
</g>
</g>
</g>
<g id="Group">
<g id="Group">
<g id="Vector">
<use xlink:href="#path2_fill" transform="translate(1253.47 22.8462)" fill="#00FFEC"/>
</g>
</g>
</g>
</g>
</g>
</g>
<defs>
<path id="path0_fill" d="M 8.02414 -2.91604e-07L 0.269272 -2.91604e-07C 0.120561 -2.91604e-07 9.4032e-08 0.096995 9.4032e-08 0.216639C 9.4032e-08 0.336283 0.120561 0.433278 0.269272 0.433278L 8.02414 0.433278C 8.17285 0.433278 8.29341 0.336283 8.29341 0.216639C 8.29341 0.096995 8.17285 -2.91604e-07 8.02414 -2.91604e-07Z"/>
<path id="path1_fill" d="M 8.02414 2.86102e-07L 0.269272 2.86102e-07C 0.120561 2.86102e-07 9.4032e-08 0.0969949 9.4032e-08 0.216639C 9.4032e-08 0.336283 0.120561 0.433278 0.269272 0.433278L 8.02414 0.433278C 8.17285 0.433278 8.29341 0.336283 8.29341 0.216639C 8.29341 0.0969949 8.17285 2.86102e-07 8.02414 2.86102e-07Z"/>
<path id="path2_fill" d="M 12.0535 4.14402L 2.61947 4.14402L 11.6324 1.90151C 11.7745 1.86615 11.854 1.74483 11.81 1.63053L 11.242 0.152618C 11.2209 0.0977426 11.1735 0.0518141 11.1103 0.0250413C 11.0472 -0.00175406 10.9734 -0.00732046 10.9052 0.00967172L 0.189776 2.67582C 0.0476751 2.71118 -0.0318489 2.83249 0.0121008 2.94679L 0.568181 4.39336L 0.568181 11.3218C 0.568181 11.4415 0.688741 11.5385 0.837453 11.5385L 12.0536 11.5385C 12.2023 11.5385 12.3228 11.4415 12.3228 11.3218L 12.3228 4.36064C 12.3228 4.241 12.2022 4.14402 12.0535 4.14402ZM 10.5385 4.57728L 9.15431 5.69094L 7.41604 5.69094L 8.80028 4.57728L 10.5385 4.57728ZM 8.03868 4.57728L 6.65442 5.69094L 4.91615 5.69094L 6.30038 4.57728L 8.03868 4.57728ZM 5.53884 4.57728L 4.1546 5.69094L 2.41631 5.69094L 3.80054 4.57728L 5.53884 4.57728ZM 3.03897 4.57728L 1.65474 5.69094L 1.1067 5.69094L 1.1067 4.57728L 3.03897 4.57728ZM 10.8071 0.487661L 11.216 1.55159L 10.6925 1.68185L 8.96106 0.946946L 10.8071 0.487661ZM 8.23347 1.12796L 9.9649 1.86286L 8.30425 2.27605L 6.57282 1.54115L 8.23347 1.12796ZM 5.84523 1.72221L 7.57666 2.45711L 5.91595 2.87029L 4.18455 2.13538L 5.84523 1.72221ZM 3.45693 2.31642L 5.18833 3.05132L 3.52768 3.46452L 1.79631 2.72962L 3.45693 2.31642ZM 0.606136 3.02574L 1.06869 2.91067L 2.80012 3.64557L 1.01513 4.08969L 0.606136 3.02574ZM 11.7843 11.1052L 1.1067 11.1052L 1.1067 6.12422L 11.7843 6.12422L 11.7843 11.1052ZM 11.7843 5.69094L 9.91585 5.69094L 11.3001 4.57728L 11.7843 4.57728L 11.7843 5.69094Z"/>
</defs>
</svg>
