<svg width="13" height="13" viewBox="0 0 13 13" version="1.1" xmlns="http://www.w3.org/2000/svg" xmlns:xlink="http://www.w3.org/1999/xlink">
<title>Group</title>
<desc>Created using Figma</desc>
<g id="Canvas" transform="translate(-1253 32)">
<g id="Group">
<g id="Group">
<g id="Vector">
<use xlink:href="#path0_fill" transform="translate(1253.47 -31.3846)" fill="#00FFEC"/>
</g>
<g id="Vector">
<use xlink:href="#path1_fill" transform="translate(1256.14 -30.2308)" fill="#00FFEC"/>
</g>
</g>
</g>
</g>
<defs>
<path id="path0_fill" d="M 6.16142 0C 2.76401 0 0 2.58808 0 5.76923C 0 8.95039 2.76401 11.5385 6.16142 11.5385C 9.55882 11.5385 12.3228 8.95039 12.3228 5.76923C 12.3228 2.58808 9.55882 0 6.16142 0ZM 6.16142 11.1538C 2.99055 11.1538 0.410761 8.73827 0.410761 5.76923C 0.410761 2.80019 2.99055 0.384615 6.16142 0.384615C 9.33229 0.384615 11.9121 2.80019 11.9121 5.76923C 11.9121 8.73827 9.33229 11.1538 6.16142 11.1538Z"/>
<path id="path1_fill" d="M 3.49147 0C 3.3781 0 3.28609 0.0859616 3.28609 0.192308L 3.28609 4.61539L 0.205381 4.61539C 0.0920105 4.61539 0 4.70135 0 4.80769C 0 4.91404 0.0920105 5 0.205381 5L 3.49147 5C 3.60484 5 3.69685 4.91404 3.69685 4.80769L 3.69685 0.192308C 3.69685 0.0859616 3.60484 0 3.49147 0Z"/>
</defs>
</svg>
