<svg width="202" height="37" viewBox="0 0 202 37" version="1.1" xmlns="http://www.w3.org/2000/svg" xmlns:xlink="http://www.w3.org/1999/xlink">
<title>Group 9.2</title>
<desc>Created using Figma</desc>
<g id="Canvas" transform="translate(623 646)">
<g id="Group 9.2">
<g id="AlteView">
<use xlink:href="#path0_fill" transform="translate(-570 -649)" fill="#535393"/>
<use xlink:href="#path1_fill" transform="translate(-570 -649)" fill="#00FFEC"/>
</g>
<g id="bionic-contact-lens (1)">
<g id="Group">
<g id="Vector">
<use xlink:href="#path2_fill" transform="translate(-623 -641.341)" fill="#2B2B7E"/>
</g>
<g id="Vector">
<use xlink:href="#path3_fill" transform="translate(-622.999 -627.518)" fill="#535393"/>
</g>
<g id="Vector">
<use xlink:href="#path4_fill" transform="translate(-609.149 -638.516)" fill="#15E5AA"/>
</g>
<g id="Vector">
<use xlink:href="#path5_fill" transform="translate(-598 -638.517)" fill="#09C8D6"/>
</g>
<g id="Vector">
<use xlink:href="#path6_fill" transform="translate(-609.99 -639.348)" fill="#00FFEC"/>
</g>
<g id="Group">
<g id="Vector">
<use xlink:href="#path7_fill" transform="translate(-598.42 -636.056)" fill="#B0FFF7"/>
</g>
<g id="Vector">
<use xlink:href="#path8_fill" transform="translate(-598.42 -619.771)" fill="#B0FFF7"/>
</g>
<g id="Vector">
<use xlink:href="#path9_fill" transform="translate(-592.595 -633.675)" fill="#B0FFF7"/>
</g>
<g id="Vector">
<use xlink:href="#path10_fill" transform="translate(-604.249 -622.16)" fill="#B0FFF7"/>
</g>
<g id="Vector">
<use xlink:href="#path11_fill" transform="translate(-590.179 -627.917)" fill="#B0FFF7"/>
</g>
<g id="Vector">
<use xlink:href="#path12_fill" transform="translate(-606.66 -627.917)" fill="#B0FFF7"/>
</g>
<g id="Vector">
<use xlink:href="#path13_fill" transform="translate(-592.595 -622.16)" fill="#B0FFF7"/>
</g>
<g id="Vector">
<use xlink:href="#path14_fill" transform="translate(-604.249 -633.675)" fill="#B0FFF7"/>
</g>
<g id="Vector">
<use xlink:href="#path15_fill" transform="translate(-602.538 -634.967)" fill="#B0FFF7"/>
</g>
<g id="Vector">
<use xlink:href="#path16_fill" transform="translate(-594.301 -620.865)" fill="#B0FFF7"/>
</g>
<g id="Vector">
<use xlink:href="#path17_fill" transform="translate(-596.288 -635.78)" fill="#B0FFF7"/>
</g>
<g id="Vector">
<use xlink:href="#path18_fill" transform="translate(-600.553 -620.053)" fill="#B0FFF7"/>
</g>
<g id="Vector">
<use xlink:href="#path19_fill" transform="translate(-591.285 -631.984)" fill="#B0FFF7"/>
</g>
<g id="Vector">
<use xlink:href="#path20_fill" transform="translate(-605.555 -623.845)" fill="#B0FFF7"/>
</g>
<g id="Vector">
<use xlink:href="#path21_fill" transform="translate(-590.462 -625.81)" fill="#B0FFF7"/>
</g>
<g id="Vector">
<use xlink:href="#path22_fill" transform="translate(-606.378 -630.023)" fill="#B0FFF7"/>
</g>
<g id="Vector">
<use xlink:href="#path23_fill" transform="translate(-605.554 -631.986)" fill="#B0FFF7"/>
</g>
<g id="Vector">
<use xlink:href="#path24_fill" transform="translate(-591.286 -623.845)" fill="#B0FFF7"/>
</g>
<g id="Vector">
<use xlink:href="#path25_fill" transform="translate(-600.552 -635.78)" fill="#B0FFF7"/>
</g>
<g id="Vector">
<use xlink:href="#path26_fill" transform="translate(-596.288 -620.053)" fill="#B0FFF7"/>
</g>
<g id="Vector">
<use xlink:href="#path27_fill" transform="translate(-594.3 -634.967)" fill="#B0FFF7"/>
</g>
<g id="Vector">
<use xlink:href="#path28_fill" transform="translate(-602.538 -620.867)" fill="#B0FFF7"/>
</g>
<g id="Vector">
<use xlink:href="#path29_fill" transform="translate(-590.463 -630.023)" fill="#B0FFF7"/>
</g>
<g id="Vector">
<use xlink:href="#path30_fill" transform="translate(-606.377 -625.808)" fill="#B0FFF7"/>
</g>
</g>
<g id="Group">
<g id="Vector">
<use xlink:href="#path31_fill" transform="translate(-609.167 -637.199)" fill="#09C8D6"/>
</g>
<g id="Vector">
<use xlink:href="#path32_fill" transform="translate(-609.167 -619.533)" fill="#09C8D6"/>
</g>
<g id="Vector">
<use xlink:href="#path33_fill" transform="translate(-588.586 -619.531)" fill="#09C8D6"/>
</g>
<g id="Vector">
<use xlink:href="#path34_fill" transform="translate(-588.586 -637.199)" fill="#09C8D6"/>
</g>
</g>
<g id="Vector">
<use xlink:href="#path35_fill" transform="translate(-601.629 -631.086)" fill="#FAFDFD"/>
</g>
<g id="Vector">
<use xlink:href="#path36_fill" transform="translate(-601.629 -631.086)" fill="#0B9BD3"/>
</g>
<g id="Group">
<g id="Vector">
<use xlink:href="#path37_fill" transform="translate(-599.144 -646)" fill="#00EDFF"/>
</g>
<g id="Vector">
<use xlink:href="#path38_fill" transform="translate(-599.146 -612.95)" fill="#00EDFF"/>
</g>
</g>
</g>
</g>
</g>
</g>
<defs>
<path id="path0_fill" d="M 11.124 8.44L 13.248 8.44L 23.868 34L 21.204 34L 17.892 26.008L 6.408 26.008L 3.132 34L 0.432 34L 11.124 8.44ZM 17.316 24.028L 12.168 11.392L 6.948 24.028L 17.316 24.028ZM 27.1361 7.72L 29.5841 7.72L 29.5841 29.752C 29.5841 30.448 29.7761 31 30.1601 31.408C 30.5441 31.792 31.0841 31.984 31.7801 31.984C 32.0441 31.984 32.3561 31.948 32.7161 31.876C 33.0761 31.804 33.4121 31.708 33.7241 31.588L 34.1561 33.568C 33.7001 33.76 33.1361 33.916 32.4641 34.036C 31.8161 34.156 31.2521 34.216 30.7721 34.216C 29.6441 34.216 28.7561 33.904 28.1081 33.28C 27.4601 32.632 27.1361 31.732 27.1361 30.58L 27.1361 7.72ZM 45.8367 33.1C 45.6927 33.172 45.4767 33.268 45.1887 33.388C 44.9247 33.508 44.6127 33.628 44.2527 33.748C 43.8927 33.868 43.4847 33.976 43.0287 34.072C 42.5727 34.168 42.0927 34.216 41.5887 34.216C 41.0607 34.216 40.5567 34.144 40.0767 34C 39.5967 33.856 39.1767 33.64 38.8167 33.352C 38.4567 33.04 38.1687 32.656 37.9527 32.2C 37.7367 31.744 37.6287 31.216 37.6287 30.616L 37.6287 17.188L 35.0367 17.188L 35.0367 15.244L 37.6287 15.244L 37.6287 8.908L 40.0767 8.908L 40.0767 15.244L 44.3967 15.244L 44.3967 17.188L 40.0767 17.188L 40.0767 29.932C 40.1247 30.628 40.3647 31.144 40.7967 31.48C 41.2527 31.792 41.7687 31.948 42.3447 31.948C 43.0407 31.948 43.6527 31.84 44.1807 31.624C 44.7087 31.384 45.0447 31.216 45.1887 31.12L 45.8367 33.1ZM 56.5383 34.36C 55.1703 34.36 53.9103 34.108 52.7583 33.604C 51.6303 33.076 50.6463 32.368 49.8063 31.48C 48.9663 30.568 48.3063 29.524 47.8263 28.348C 47.3703 27.172 47.1423 25.912 47.1423 24.568C 47.1423 23.248 47.3703 22.012 47.8263 20.86C 48.3063 19.684 48.9543 18.664 49.7703 17.8C 50.6103 16.912 51.6063 16.216 52.7583 15.712C 53.9103 15.184 55.1583 14.92 56.5023 14.92C 57.8703 14.92 59.1183 15.184 60.2463 15.712C 61.3983 16.216 62.3823 16.912 63.1983 17.8C 64.0143 18.688 64.6503 19.708 65.1063 20.86C 65.5623 22.012 65.7903 23.236 65.7903 24.532C 65.7903 24.724 65.7903 24.916 65.7903 25.108C 65.7903 25.3 65.7783 25.432 65.7543 25.504L 49.6983 25.504C 49.7703 26.512 49.9983 27.448 50.3823 28.312C 50.7903 29.152 51.3063 29.884 51.9303 30.508C 52.5543 31.132 53.2623 31.624 54.0543 31.984C 54.8703 32.32 55.7343 32.488 56.6463 32.488C 57.2463 32.488 57.8463 32.404 58.4463 32.236C 59.0463 32.068 59.5983 31.84 60.1023 31.552C 60.6063 31.264 61.0623 30.916 61.4703 30.508C 61.8783 30.076 62.1903 29.608 62.4063 29.104L 64.5303 29.68C 64.2423 30.376 63.8343 31.012 63.3063 31.588C 62.7783 32.14 62.1663 32.632 61.4703 33.064C 60.7743 33.472 60.0063 33.784 59.1663 34C 58.3263 34.24 57.4503 34.36 56.5383 34.36ZM 63.4503 23.632C 63.3783 22.624 63.1383 21.712 62.7303 20.896C 62.3463 20.056 61.8423 19.336 61.2183 18.736C 60.6183 18.136 59.9103 17.668 59.0943 17.332C 58.3023 16.996 57.4503 16.828 56.5383 16.828C 55.6263 16.828 54.7623 16.996 53.9463 17.332C 53.1303 17.668 52.4103 18.136 51.7863 18.736C 51.1863 19.336 50.6943 20.056 50.3103 20.896C 49.9503 21.736 49.7343 22.648 49.6623 23.632L 63.4503 23.632Z"/>
<path id="path1_fill" d="M 69.9632 8.44L 79.1072 30.868L 88.2152 8.44L 90.8432 8.44L 80.1872 34L 77.9912 34L 67.3352 8.44L 69.9632 8.44ZM 94.0008 34L 94.0008 15.244L 96.4488 15.244L 96.4488 34L 94.0008 34ZM 94.0008 11.32L 94.0008 7.72L 96.4488 7.72L 96.4488 11.32L 94.0008 11.32ZM 109.941 34.36C 108.573 34.36 107.313 34.108 106.161 33.604C 105.033 33.076 104.049 32.368 103.209 31.48C 102.369 30.568 101.709 29.524 101.229 28.348C 100.773 27.172 100.545 25.912 100.545 24.568C 100.545 23.248 100.773 22.012 101.229 20.86C 101.709 19.684 102.357 18.664 103.173 17.8C 104.013 16.912 105.009 16.216 106.161 15.712C 107.313 15.184 108.561 14.92 109.905 14.92C 111.273 14.92 112.521 15.184 113.649 15.712C 114.801 16.216 115.785 16.912 116.601 17.8C 117.417 18.688 118.053 19.708 118.509 20.86C 118.965 22.012 119.193 23.236 119.193 24.532C 119.193 24.724 119.193 24.916 119.193 25.108C 119.193 25.3 119.181 25.432 119.157 25.504L 103.101 25.504C 103.173 26.512 103.401 27.448 103.785 28.312C 104.193 29.152 104.709 29.884 105.333 30.508C 105.957 31.132 106.665 31.624 107.457 31.984C 108.273 32.32 109.137 32.488 110.049 32.488C 110.649 32.488 111.249 32.404 111.849 32.236C 112.449 32.068 113.001 31.84 113.505 31.552C 114.009 31.264 114.465 30.916 114.873 30.508C 115.281 30.076 115.593 29.608 115.809 29.104L 117.933 29.68C 117.645 30.376 117.237 31.012 116.709 31.588C 116.181 32.14 115.569 32.632 114.873 33.064C 114.177 33.472 113.409 33.784 112.569 34C 111.729 34.24 110.853 34.36 109.941 34.36ZM 116.853 23.632C 116.781 22.624 116.541 21.712 116.133 20.896C 115.749 20.056 115.245 19.336 114.621 18.736C 114.021 18.136 113.313 17.668 112.497 17.332C 111.705 16.996 110.853 16.828 109.941 16.828C 109.029 16.828 108.165 16.996 107.349 17.332C 106.533 17.668 105.813 18.136 105.189 18.736C 104.589 19.336 104.097 20.056 103.713 20.896C 103.353 21.736 103.137 22.648 103.065 23.632L 116.853 23.632ZM 146.093 15.244L 148.505 15.244L 140.441 34L 138.425 34L 134.393 24.424L 130.397 34L 128.381 34L 120.317 15.244L 122.693 15.244L 129.533 31.48L 133.097 22.912L 129.893 15.28L 131.945 15.28L 134.393 21.4L 136.841 15.28L 138.929 15.28L 135.725 22.912L 139.289 31.48L 146.093 15.244Z"/>
<path id="path2_fill" d="M 49.9996 13.8581C 48.8777 8.08438 38.1177 -1.43565e-07 24.9997 -1.43565e-07C 11.8818 -1.43565e-07 1.12184 8.08507 0 13.8581L 49.9996 13.8581Z"/>
<path id="path3_fill" d="M 3.76869e-11 4.78549e-07C 1.12105 5.77299 11.8811 13.8581 24.999 13.8581C 38.117 13.8581 48.8769 5.77299 49.9989 4.78549e-07L 3.76869e-11 4.78549e-07Z"/>
<path id="path4_fill" d="M 11.1484 22.0327C 17.3055 22.0327 22.2968 17.1005 22.2968 11.0164C 22.2968 4.93219 17.3055 0 11.1484 0C 4.9913 0 0 4.93219 0 11.0164C 0 17.1005 4.9913 22.0327 11.1484 22.0327Z"/>
<path id="path5_fill" d="M -3.51106e-07 -5.98186e-07C 6.15618 -5.98186e-07 11.1484 4.93229 11.1484 11.0171C 11.1484 17.1004 6.15618 22.0343 -3.51106e-07 22.0343"/>
<path id="path6_fill" d="M 11.9905 23.6971C 5.3789 23.6971 7.38533e-07 18.3819 7.38533e-07 11.8485C 7.38533e-07 5.3152 5.3789 7.29787e-07 11.9905 7.29787e-07C 18.6022 7.29787e-07 23.981 5.3152 23.981 11.8485C 23.981 18.3819 18.6022 23.6971 11.9905 23.6971ZM 11.9905 1.66357C 6.30694 1.66357 1.6836 6.23225 1.6836 11.8484C 1.6836 17.4646 6.30704 22.0333 11.9905 22.0333C 17.674 22.0333 22.2974 17.4646 22.2974 11.8484C 22.2974 6.23225 17.674 1.66357 11.9905 1.66357Z"/>
<path id="path7_fill" d="M 0.42033 0.830705C 0.652472 0.830705 0.84066 0.644745 0.84066 0.415352C 0.84066 0.185959 0.652472 0 0.42033 0C 0.188188 0 0 0.185959 0 0.415352C 0 0.644745 0.188188 0.830705 0.42033 0.830705Z"/>
<path id="path8_fill" d="M 0.42033 0.830706C 0.652472 0.830706 0.84066 0.644745 0.84066 0.415352C 0.84066 0.185959 0.652472 0 0.42033 0C 0.188188 0 0 0.185959 0 0.415352C 0 0.644745 0.188188 0.830706 0.42033 0.830706Z"/>
<path id="path9_fill" d="M 0.421123 0.832274C 0.653703 0.832274 0.842247 0.645963 0.842247 0.416137C 0.842247 0.186311 0.653703 0 0.421123 0C 0.188542 0 0 0.186311 0 0.416137C 0 0.645963 0.188542 0.832274 0.421123 0.832274Z"/>
<path id="path10_fill" d="M 0.421124 0.832273C 0.653704 0.832273 0.842248 0.645962 0.842248 0.416136C 0.842248 0.18631 0.653704 0 0.421124 0C 0.188544 0 0 0.18631 0 0.416136C 0 0.645962 0.188544 0.832273 0.421124 0.832273Z"/>
<path id="path11_fill" d="M 0.421123 0.832272C 0.653704 0.832272 0.842247 0.645963 0.842247 0.416137C 0.842247 0.186311 0.653704 0 0.421123 0C 0.188543 0 0 0.186311 0 0.416137C 0 0.645963 0.188543 0.832272 0.421123 0.832272Z"/>
<path id="path12_fill" d="M 0.422612 0.832275C 0.188247 0.832275 0.000694487 0.646257 2.17928e-07 0.416921C 0.000793669 0.186115 0.188246 0.00156878 0.421917 6.69968e-07C 0.652415 0.00156878 0.842248 0.186017 0.843041 0.416921C 0.842942 0.645473 0.652316 0.832275 0.422612 0.832275Z"/>
<path id="path13_fill" d="M 0.123631 0.710598C -0.0412087 0.548494 -0.0412087 0.283682 0.123631 0.122363C 0.28847 -0.0413087 0.554869 -0.0397428 0.718915 0.120792C 0.882961 0.285248 0.882961 0.546142 0.718915 0.710598C 0.554869 0.871917 0.28847 0.872701 0.123631 0.710598Z"/>
<path id="path14_fill" d="M 0.421124 0.832274C 0.653704 0.832274 0.842248 0.645963 0.842248 0.416137C 0.842248 0.186311 0.653704 0 0.421124 0C 0.188544 0 0 0.186311 0 0.416137C 0 0.645963 0.188544 0.832274 0.421124 0.832274Z"/>
<path id="path15_fill" d="M 0.421124 0.832273C 0.653704 0.832273 0.842248 0.645962 0.842248 0.416136C 0.842248 0.18631 0.653704 0 0.421124 0C 0.188544 0 0 0.18631 0 0.416136C 0 0.645962 0.188544 0.832273 0.421124 0.832273Z"/>
<path id="path16_fill" d="M 0.420329 0.830707C 0.652471 0.830707 0.840661 0.644746 0.840661 0.415353C 0.840661 0.18596 0.652471 0 0.420329 0C 0.188187 0 0 0.18596 0 0.415353C 0 0.644746 0.188187 0.830707 0.420329 0.830707Z"/>
<path id="path17_fill" d="M 0.827493 0.522754C 0.766595 0.745131 0.536893 0.877832 0.313438 0.816871C 0.0869075 0.757381 -0.0452018 0.530496 0.0142078 0.308119C 0.076692 0.0865255 0.30481 -0.0447048 0.529852 0.0140013C 0.753208 0.0742754 0.88839 0.301259 0.827493 0.522754Z"/>
<path id="path18_fill" d="M 0.421124 0.832273C 0.653704 0.832273 0.842248 0.645962 0.842248 0.416136C 0.842248 0.18631 0.653704 0 0.421124 0C 0.188544 0 0 0.18631 0 0.416136C 0 0.645962 0.188544 0.832273 0.421124 0.832273Z"/>
<path id="path19_fill" d="M 0.420331 0.830705C 0.652473 0.830705 0.840662 0.644746 0.840662 0.415353C 0.840662 0.18596 0.652473 0 0.420331 0C 0.188189 0 0 0.18596 0 0.415353C 0 0.644746 0.188189 0.830705 0.420331 0.830705Z"/>
<path id="path20_fill" d="M 0.63291 0.774936C 0.428993 0.889996 0.172708 0.821978 0.0571615 0.624396C -0.0600708 0.423679 0.00876126 0.171214 0.211091 0.055468C 0.411041 -0.0580239 0.668912 0.00764129 0.784557 0.206791C 0.900103 0.405157 0.832165 0.660758 0.63291 0.774936Z"/>
<path id="path21_fill" d="M 0.311373 0.818477C 0.087918 0.758301 -0.0472647 0.529751 0.0153187 0.309726C 0.0747283 0.0858788 0.304332 -0.0446661 0.527788 0.01404C 0.754318 0.0742161 0.886427 0.3012 0.827018 0.524361C 0.766021 0.745073 0.53711 0.877869 0.311373 0.818477Z"/>
<path id="path22_fill" d="M 0.313386 0.817975C 0.0876491 0.757799 -0.0452537 0.530816 0.0141559 0.308439C 0.0766401 0.0860616 0.30555 -0.0451702 0.529799 0.0143199C 0.753254 0.0744961 0.888438 0.300696 0.829028 0.523858C 0.770412 0.744667 0.536841 0.877465 0.313386 0.817975Z"/>
<path id="path23_fill" d="M 0.631951 0.055819C 0.831206 0.169311 0.901526 0.425598 0.7835 0.623964C 0.669442 0.821546 0.409289 0.890347 0.210034 0.775287C 0.00770418 0.660227 -0.0587475 0.406291 0.0561045 0.207827C 0.17175 0.00946134 0.428034 -0.0592409 0.631951 0.055819Z"/>
<path id="path24_fill" d="M 0.631271 0.0560387C 0.835981 0.170315 0.90154 0.425035 0.7852 0.622715C 0.669555 0.822649 0.412575 0.890568 0.21094 0.774822C 0.0101968 0.662114 -0.0601225 0.405043 0.0562171 0.206677C 0.173549 0.00889921 0.431321 -0.0590212 0.631271 0.0560387Z"/>
<path id="path25_fill" d="M 0.8265 0.30813C 0.887397 0.530508 0.754594 0.758961 0.531238 0.816099C 0.303914 0.877059 0.0742103 0.745045 0.013313 0.522765C -0.0437163 0.300388 0.0874998 0.0742871 0.310955 0.0140129C 0.535105 -0.0445951 0.767189 0.0858511 0.8265 0.30813Z"/>
<path id="path26_fill" d="M 0.827447 0.307873C 0.889931 0.530251 0.75475 0.757136 0.529806 0.818195C 0.305557 0.876901 0.0766465 0.745669 0.0141623 0.523292C -0.0452474 0.301699 0.0875563 0.0747172 0.313392 0.014541C 0.536748 -0.0457331 0.766451 0.0870642 0.827447 0.307873Z"/>
<path id="path27_fill" d="M 0.784716 0.623689C 0.670658 0.822055 0.410504 0.891541 0.210456 0.775011C 0.00812578 0.660735 -0.059811 0.406016 0.0573221 0.207552C 0.173761 0.00918664 0.429153 -0.0588303 0.632276 0.0554456C 0.830837 0.170604 0.901949 0.423755 0.784716 0.623689Z"/>
<path id="path28_fill" d="M 0.78534 0.622492C 0.668901 0.82321 0.410336 0.890346 0.210386 0.776854C 0.00805632 0.66101 -0.0591888 0.407859 0.0564566 0.207925C 0.172895 0.0103436 0.429874 -0.0591429 0.63141 0.055035C 0.831459 0.169311 0.900985 0.42638 0.78534 0.622492Z"/>
<path id="path29_fill" d="M 0.421122 0.832274C 0.653703 0.832274 0.842246 0.645963 0.842246 0.416137C 0.842246 0.186311 0.653703 0 0.421122 0C 0.188542 0 0 0.186311 0 0.416137C 0 0.645963 0.188542 0.832274 0.421122 0.832274Z"/>
<path id="path30_fill" d="M 0.420331 0.830704C 0.652473 0.830704 0.840661 0.644747 0.840661 0.415354C 0.840661 0.185961 0.652473 0 0.420331 0C 0.188189 0 0 0.185961 0 0.415354C 0 0.644747 0.188189 0.830704 0.420331 0.830704Z"/>
<path id="path31_fill" d="M 4.96391e-07 1.7308L 4.96391e-07 -6.81932e-07L 1.75303 -6.81932e-07"/>
<path id="path32_fill" d="M 1.75303 1.73237L 4.96391e-07 1.73237L 4.96391e-07 1.29208e-06"/>
<path id="path33_fill" d="M 1.75154 4.30694e-07L 1.75154 1.7308L -7.5064e-07 1.7308"/>
<path id="path34_fill" d="M -7.5064e-07 -6.81932e-07L 1.75154 -6.81932e-07L 1.75154 1.73237"/>
<path id="path35_fill" d="M 3.62885 7.17174C 5.633 7.17174 7.25769 5.56629 7.25769 3.58587C 7.25769 1.60545 5.633 0 3.62885 0C 1.62469 0 0 1.60545 0 3.58587C 0 5.56629 1.62469 7.17174 3.62885 7.17174Z"/>
<path id="path36_fill" d="M 0 3.58587C 0 1.60574 1.62419 0 3.62885 0C 5.6335 0 7.25769 1.60496 7.25769 3.58587"/>
<path id="path37_fill" d="M -1.21071e-07 -2.09365e-08L 1.14525 3.94948L 2.28901 -2.09365e-08L -1.21071e-07 -2.09365e-08Z"/>
<path id="path38_fill" d="M 2.2898 3.94948L 1.14455 9.57097e-08L -3.26892e-07 3.94948L 2.2898 3.94948Z"/>
</defs>
</svg>
