<svg width="50" height="37" viewBox="0 0 50 37" version="1.1" xmlns="http://www.w3.org/2000/svg" xmlns:xlink="http://www.w3.org/1999/xlink">
<title>Group 9.2</title>
<desc>Created using Figma</desc>
<g id="Canvas" transform="translate(-928 448)">
<g id="Group 9.2">
<g id="bionic-contact-lens (1)">
<g id="Group">
<g id="Vector">
<use xlink:href="#path0_fill" transform="translate(928 -443.341)" fill="#2B2B7E"/>
</g>
<g id="Vector">
<use xlink:href="#path1_fill" transform="translate(928.001 -429.518)" fill="#535393"/>
</g>
<g id="Vector">
<use xlink:href="#path2_fill" transform="translate(941.851 -440.516)" fill="#15E5AA"/>
</g>
<g id="Vector">
<use xlink:href="#path3_fill" transform="translate(953 -440.517)" fill="#09C8D6"/>
</g>
<g id="Vector">
<use xlink:href="#path4_fill" transform="translate(941.01 -441.348)" fill="#00FFEC"/>
</g>
<g id="Group">
<g id="Vector">
<use xlink:href="#path5_fill" transform="translate(952.58 -438.056)" fill="#B0FFF7"/>
</g>
<g id="Vector">
<use xlink:href="#path6_fill" transform="translate(952.58 -421.771)" fill="#B0FFF7"/>
</g>
<g id="Vector">
<use xlink:href="#path7_fill" transform="translate(958.405 -435.675)" fill="#B0FFF7"/>
</g>
<g id="Vector">
<use xlink:href="#path8_fill" transform="translate(946.751 -424.16)" fill="#B0FFF7"/>
</g>
<g id="Vector">
<use xlink:href="#path9_fill" transform="translate(960.821 -429.917)" fill="#B0FFF7"/>
</g>
<g id="Vector">
<use xlink:href="#path10_fill" transform="translate(944.34 -429.917)" fill="#B0FFF7"/>
</g>
<g id="Vector">
<use xlink:href="#path11_fill" transform="translate(958.405 -424.16)" fill="#B0FFF7"/>
</g>
<g id="Vector">
<use xlink:href="#path12_fill" transform="translate(946.751 -435.675)" fill="#B0FFF7"/>
</g>
<g id="Vector">
<use xlink:href="#path13_fill" transform="translate(948.462 -436.967)" fill="#B0FFF7"/>
</g>
<g id="Vector">
<use xlink:href="#path14_fill" transform="translate(956.699 -422.865)" fill="#B0FFF7"/>
</g>
<g id="Vector">
<use xlink:href="#path15_fill" transform="translate(954.712 -437.78)" fill="#B0FFF7"/>
</g>
<g id="Vector">
<use xlink:href="#path16_fill" transform="translate(950.447 -422.053)" fill="#B0FFF7"/>
</g>
<g id="Vector">
<use xlink:href="#path17_fill" transform="translate(959.715 -433.984)" fill="#B0FFF7"/>
</g>
<g id="Vector">
<use xlink:href="#path18_fill" transform="translate(945.445 -425.845)" fill="#B0FFF7"/>
</g>
<g id="Vector">
<use xlink:href="#path19_fill" transform="translate(960.538 -427.81)" fill="#B0FFF7"/>
</g>
<g id="Vector">
<use xlink:href="#path20_fill" transform="translate(944.622 -432.023)" fill="#B0FFF7"/>
</g>
<g id="Vector">
<use xlink:href="#path21_fill" transform="translate(945.446 -433.986)" fill="#B0FFF7"/>
</g>
<g id="Vector">
<use xlink:href="#path22_fill" transform="translate(959.714 -425.845)" fill="#B0FFF7"/>
</g>
<g id="Vector">
<use xlink:href="#path23_fill" transform="translate(950.448 -437.78)" fill="#B0FFF7"/>
</g>
<g id="Vector">
<use xlink:href="#path24_fill" transform="translate(954.712 -422.053)" fill="#B0FFF7"/>
</g>
<g id="Vector">
<use xlink:href="#path25_fill" transform="translate(956.7 -436.967)" fill="#B0FFF7"/>
</g>
<g id="Vector">
<use xlink:href="#path26_fill" transform="translate(948.462 -422.867)" fill="#B0FFF7"/>
</g>
<g id="Vector">
<use xlink:href="#path27_fill" transform="translate(960.537 -432.023)" fill="#B0FFF7"/>
</g>
<g id="Vector">
<use xlink:href="#path28_fill" transform="translate(944.623 -427.808)" fill="#B0FFF7"/>
</g>
</g>
<g id="Group">
<g id="Vector">
<use xlink:href="#path29_fill" transform="translate(941.833 -439.199)" fill="#09C8D6"/>
</g>
<g id="Vector">
<use xlink:href="#path30_fill" transform="translate(941.833 -421.533)" fill="#09C8D6"/>
</g>
<g id="Vector">
<use xlink:href="#path31_fill" transform="translate(962.414 -421.531)" fill="#09C8D6"/>
</g>
<g id="Vector">
<use xlink:href="#path32_fill" transform="translate(962.414 -439.199)" fill="#09C8D6"/>
</g>
</g>
<g id="Vector">
<use xlink:href="#path33_fill" transform="translate(949.371 -433.086)" fill="#FAFDFD"/>
</g>
<g id="Vector">
<use xlink:href="#path34_fill" transform="translate(949.371 -433.086)" fill="#0B9BD3"/>
</g>
<g id="Group">
<g id="Vector">
<use xlink:href="#path35_fill" transform="translate(951.856 -448)" fill="#00EDFF"/>
</g>
<g id="Vector">
<use xlink:href="#path36_fill" transform="translate(951.854 -414.95)" fill="#00EDFF"/>
</g>
</g>
</g>
</g>
</g>
</g>
<defs>
<path id="path0_fill" d="M 49.9996 13.8581C 48.8777 8.08438 38.1177 0 24.9997 0C 11.8818 0 1.12184 8.08507 0 13.8581L 49.9996 13.8581Z"/>
<path id="path1_fill" d="M 3.76869e-11 4.78549e-07C 1.12105 5.77299 11.8811 13.8581 24.999 13.8581C 38.117 13.8581 48.8769 5.77299 49.9989 4.78549e-07L 3.76869e-11 4.78549e-07Z"/>
<path id="path2_fill" d="M 11.1484 22.0327C 17.3055 22.0327 22.2968 17.1005 22.2968 11.0164C 22.2968 4.93219 17.3055 0 11.1484 0C 4.9913 0 0 4.93219 0 11.0164C 0 17.1005 4.9913 22.0327 11.1484 22.0327Z"/>
<path id="path3_fill" d="M -3.51106e-07 -5.98186e-07C 6.15618 -5.98186e-07 11.1484 4.93229 11.1484 11.0171C 11.1484 17.1004 6.15618 22.0343 -3.51106e-07 22.0343"/>
<path id="path4_fill" d="M 11.9905 23.6971C 5.3789 23.6971 7.38533e-07 18.3819 7.38533e-07 11.8485C 7.38533e-07 5.3152 5.3789 7.29787e-07 11.9905 7.29787e-07C 18.6021 7.29787e-07 23.9811 5.3152 23.9811 11.8485C 23.9811 18.3819 18.6021 23.6971 11.9905 23.6971ZM 11.9905 1.66357C 6.30694 1.66357 1.6836 6.23225 1.6836 11.8484C 1.6836 17.4646 6.30704 22.0333 11.9905 22.0333C 17.674 22.0333 22.2974 17.4646 22.2974 11.8484C 22.2974 6.23225 17.674 1.66357 11.9905 1.66357Z"/>
<path id="path5_fill" d="M 0.42033 0.830705C 0.652472 0.830705 0.84066 0.644745 0.84066 0.415352C 0.84066 0.185959 0.652472 0 0.42033 0C 0.188188 0 0 0.185959 0 0.415352C 0 0.644745 0.188188 0.830705 0.42033 0.830705Z"/>
<path id="path6_fill" d="M 0.42033 0.830706C 0.652472 0.830706 0.84066 0.644745 0.84066 0.415352C 0.84066 0.185959 0.652472 0 0.42033 0C 0.188188 0 0 0.185959 0 0.415352C 0 0.644745 0.188188 0.830706 0.42033 0.830706Z"/>
<path id="path7_fill" d="M 0.421123 0.832274C 0.653703 0.832274 0.842247 0.645963 0.842247 0.416137C 0.842247 0.186311 0.653703 0 0.421123 0C 0.188542 0 0 0.186311 0 0.416137C 0 0.645963 0.188542 0.832274 0.421123 0.832274Z"/>
<path id="path8_fill" d="M 0.421124 0.832273C 0.653704 0.832273 0.842248 0.645962 0.842248 0.416136C 0.842248 0.18631 0.653704 0 0.421124 0C 0.188544 0 0 0.18631 0 0.416136C 0 0.645962 0.188544 0.832273 0.421124 0.832273Z"/>
<path id="path9_fill" d="M 0.421123 0.832272C 0.653704 0.832272 0.842247 0.645963 0.842247 0.416137C 0.842247 0.186311 0.653704 0 0.421123 0C 0.188543 0 0 0.186311 0 0.416137C 0 0.645963 0.188543 0.832272 0.421123 0.832272Z"/>
<path id="path10_fill" d="M 0.422612 0.832275C 0.188247 0.832275 0.000694487 0.646257 2.17928e-07 0.416921C 0.000793669 0.186115 0.188246 0.00156878 0.421917 6.69968e-07C 0.652415 0.00156878 0.842248 0.186017 0.843041 0.416921C 0.842942 0.645473 0.652316 0.832275 0.422612 0.832275Z"/>
<path id="path11_fill" d="M 0.123631 0.710598C -0.0412087 0.548494 -0.0412087 0.283682 0.123631 0.122363C 0.28847 -0.0413087 0.554869 -0.0397428 0.718915 0.120792C 0.882961 0.285248 0.882961 0.546142 0.718915 0.710598C 0.554869 0.871917 0.28847 0.872701 0.123631 0.710598Z"/>
<path id="path12_fill" d="M 0.421124 0.832274C 0.653704 0.832274 0.842248 0.645963 0.842248 0.416137C 0.842248 0.186311 0.653704 0 0.421124 0C 0.188544 0 0 0.186311 0 0.416137C 0 0.645963 0.188544 0.832274 0.421124 0.832274Z"/>
<path id="path13_fill" d="M 0.421124 0.832273C 0.653704 0.832273 0.842248 0.645962 0.842248 0.416136C 0.842248 0.18631 0.653704 0 0.421124 0C 0.188544 0 0 0.18631 0 0.416136C 0 0.645962 0.188544 0.832273 0.421124 0.832273Z"/>
<path id="path14_fill" d="M 0.420329 0.830707C 0.652471 0.830707 0.840661 0.644746 0.840661 0.415353C 0.840661 0.18596 0.652471 0 0.420329 0C 0.188187 0 0 0.18596 0 0.415353C 0 0.644746 0.188187 0.830707 0.420329 0.830707Z"/>
<path id="path15_fill" d="M 0.827493 0.522754C 0.766595 0.745131 0.536893 0.877832 0.313438 0.816871C 0.0869075 0.757381 -0.0452018 0.530496 0.0142078 0.308119C 0.076692 0.0865255 0.30481 -0.0447048 0.529852 0.0140013C 0.753208 0.0742754 0.88839 0.301259 0.827493 0.522754Z"/>
<path id="path16_fill" d="M 0.421124 0.832273C 0.653704 0.832273 0.842248 0.645962 0.842248 0.416136C 0.842248 0.18631 0.653704 0 0.421124 0C 0.188544 0 0 0.18631 0 0.416136C 0 0.645962 0.188544 0.832273 0.421124 0.832273Z"/>
<path id="path17_fill" d="M 0.420331 0.830705C 0.652473 0.830705 0.840662 0.644746 0.840662 0.415353C 0.840662 0.18596 0.652473 0 0.420331 0C 0.188189 0 0 0.18596 0 0.415353C 0 0.644746 0.188189 0.830705 0.420331 0.830705Z"/>
<path id="path18_fill" d="M 0.63291 0.774936C 0.428993 0.889996 0.172708 0.821978 0.0571615 0.624396C -0.0600708 0.423679 0.00876126 0.171214 0.211091 0.055468C 0.411041 -0.0580239 0.668912 0.00764129 0.784557 0.206791C 0.900104 0.405157 0.832165 0.660758 0.63291 0.774936Z"/>
<path id="path19_fill" d="M 0.311373 0.818477C 0.087918 0.758301 -0.0472647 0.529751 0.0153187 0.309726C 0.0747283 0.0858788 0.304332 -0.0446661 0.527788 0.01404C 0.754318 0.0742161 0.886427 0.3012 0.827018 0.524361C 0.766021 0.745072 0.53711 0.877869 0.311373 0.818477Z"/>
<path id="path20_fill" d="M 0.313386 0.817975C 0.0876491 0.757799 -0.0452537 0.530816 0.0141559 0.308439C 0.0766401 0.0860616 0.30555 -0.0451702 0.529799 0.0143199C 0.753254 0.0744961 0.888438 0.300696 0.829028 0.523858C 0.770412 0.744667 0.536841 0.877465 0.313386 0.817975Z"/>
<path id="path21_fill" d="M 0.631951 0.055819C 0.831206 0.169311 0.901526 0.425598 0.7835 0.623964C 0.669442 0.821546 0.409289 0.890347 0.210034 0.775287C 0.00770418 0.660227 -0.0587475 0.406291 0.0561045 0.207827C 0.17175 0.00946134 0.428034 -0.0592409 0.631951 0.055819Z"/>
<path id="path22_fill" d="M 0.631271 0.0560387C 0.835981 0.170315 0.90154 0.425035 0.7852 0.622715C 0.669555 0.822649 0.412575 0.890568 0.21094 0.774822C 0.0101968 0.662114 -0.0601225 0.405043 0.0562171 0.206677C 0.173549 0.00889921 0.431321 -0.0590212 0.631271 0.0560387Z"/>
<path id="path23_fill" d="M 0.8265 0.30813C 0.887397 0.530508 0.754594 0.758961 0.531238 0.816099C 0.303914 0.87706 0.0742103 0.745045 0.013313 0.522765C -0.0437163 0.300388 0.0874998 0.0742871 0.310955 0.0140129C 0.535105 -0.0445951 0.767189 0.0858511 0.8265 0.30813Z"/>
<path id="path24_fill" d="M 0.827447 0.307873C 0.889931 0.530251 0.75475 0.757137 0.529806 0.818195C 0.305557 0.876901 0.0766465 0.745669 0.0141623 0.523292C -0.0452473 0.301699 0.0875563 0.0747172 0.313392 0.014541C 0.536748 -0.0457331 0.766451 0.0870642 0.827447 0.307873Z"/>
<path id="path25_fill" d="M 0.784716 0.623689C 0.670658 0.822055 0.410504 0.891541 0.210456 0.775011C 0.00812578 0.660735 -0.059811 0.406016 0.0573221 0.207552C 0.173761 0.00918664 0.429153 -0.0588303 0.632276 0.0554456C 0.830837 0.170604 0.901949 0.423755 0.784716 0.623689Z"/>
<path id="path26_fill" d="M 0.78534 0.622492C 0.668901 0.82321 0.410336 0.890346 0.210386 0.776854C 0.00805632 0.66101 -0.0591888 0.407859 0.0564566 0.207925C 0.172895 0.0103436 0.429874 -0.0591429 0.63141 0.055035C 0.831459 0.169311 0.900985 0.42638 0.78534 0.622492Z"/>
<path id="path27_fill" d="M 0.421122 0.832274C 0.653703 0.832274 0.842246 0.645963 0.842246 0.416137C 0.842246 0.186311 0.653703 0 0.421122 0C 0.188542 0 0 0.186311 0 0.416137C 0 0.645963 0.188542 0.832274 0.421122 0.832274Z"/>
<path id="path28_fill" d="M 0.420331 0.830704C 0.652473 0.830704 0.840661 0.644747 0.840661 0.415354C 0.840661 0.185961 0.652473 0 0.420331 0C 0.188189 0 0 0.185961 0 0.415354C 0 0.644747 0.188189 0.830704 0.420331 0.830704Z"/>
<path id="path29_fill" d="M 4.96391e-07 1.7308L 4.96391e-07 -6.81932e-07L 1.75303 -6.81932e-07"/>
<path id="path30_fill" d="M 1.75303 1.73237L 4.96391e-07 1.73237L 4.96391e-07 1.29208e-06"/>
<path id="path31_fill" d="M 1.75154 4.30694e-07L 1.75154 1.7308L -7.5064e-07 1.7308"/>
<path id="path32_fill" d="M -7.5064e-07 -6.81932e-07L 1.75154 -6.81932e-07L 1.75154 1.73237"/>
<path id="path33_fill" d="M 3.62885 7.17174C 5.633 7.17174 7.25769 5.56629 7.25769 3.58587C 7.25769 1.60545 5.633 0 3.62885 0C 1.62469 0 0 1.60545 0 3.58587C 0 5.56629 1.62469 7.17174 3.62885 7.17174Z"/>
<path id="path34_fill" d="M 0 3.58587C 0 1.60574 1.62419 0 3.62885 0C 5.6335 0 7.25769 1.60496 7.25769 3.58587"/>
<path id="path35_fill" d="M -1.21071e-07 -2.09365e-08L 1.14525 3.94948L 2.28901 -2.09365e-08L -1.21071e-07 -2.09365e-08Z"/>
<path id="path36_fill" d="M 2.2898 3.94948L 1.14455 9.57097e-08L -3.26892e-07 3.94948L 2.2898 3.94948Z"/>
</defs>
</svg>
